<svg xmlns="http://www.w3.org/2000/svg" width="52" height="49" fill="none" viewBox="0 0 52 49">
  <path fill="#2A59BB" d="M9.066 35.39a3.182 3.182 0 01.914 2.549 34.904 34.904 0 01-1.267 6.363c4.439-1.027 7.15-2.218 8.381-2.841a3.182 3.182 0 012.26-.236 25.64 25.64 0 006.646.866c12.715 0 22.273-8.931 22.273-19.091 0-10.156-9.558-19.09-22.273-19.09C13.286 3.91 3.727 12.843 3.727 23c0 4.67 1.963 9.005 5.34 12.39zM7.498 47.815c-.754.15-1.51.286-2.269.41-.636.102-1.12-.56-.869-1.151.283-.667.542-1.343.777-2.027l.01-.032c.788-2.29 1.431-4.925 1.667-7.379C2.91 33.723.545 28.6.545 23 .545 10.7 11.943.727 26 .727 40.057.727 51.455 10.7 51.455 23c0 12.3-11.398 22.273-25.455 22.273a28.827 28.827 0 01-7.468-.974c-1.654.837-5.215 2.361-11.034 3.516z"/>
</svg>
