<svg xmlns="http://www.w3.org/2000/svg" width="64" height="64" fill="none" viewBox="0 0 64 64">
  <path fill="#EE3636" d="M40.178 7.111H38.31a6.916 6.916 0 00-12.995 0h-1.494a4.284 4.284 0 00-4.267 4.267v6.4h24.89v-6.4a4.285 4.285 0 00-4.267-4.267zm.71 7.111H23.112v-3.11a.444.444 0 01.444-.445h4.783l.213-1.974a2.204 2.204 0 01.978-1.582 3.556 3.556 0 015.6 2.098l.16 1.493h5.155a.444.444 0 01.445.445v3.075zM59.111 32.107H37.92l5.049-5.031a1.787 1.787 0 00-.58-2.912 1.785 1.785 0 00-1.945.387l-9.333 9.334 9.333 9.333a1.779 1.779 0 002.525-2.507l-5.049-5.049h21.191a1.778 1.778 0 100-3.555z"/>
  <path fill="#EE3636" d="M51.556 28.444h3.555V11.876a2.95 2.95 0 00-2.933-2.987h-4.036v3.555h3.413v16zM51.556 55.111H12.444V12.444H16V8.89h-4.196a2.95 2.95 0 00-2.915 2.969V55.68a2.951 2.951 0 002.933 2.987h40.374a2.951 2.951 0 002.915-2.97v-16.48h-3.555v15.894z"/>
</svg>
