<svg xmlns="http://www.w3.org/2000/svg" width="58" height="60" fill="none" viewBox="0 0 58 60">
  <path fill="#2A59BB" d="M27.353 13.662h3.288c.3 0 .547.246.547.547v18.82a.541.541 0 01-.226.444l-11.3 8.25a.546.546 0 01-.765-.116l-1.956-2.666a.538.538 0 01.117-.765l9.748-7.048V14.209c0-.3.246-.547.547-.547zm-15.026 5.14L1.608 21.422a.549.549 0 01-.676-.526L.877 9.855c0-.459.526-.718.882-.431l10.773 8.415a.546.546 0 01-.205.964zM.863 39.387l3.876-1.333a.547.547 0 01.69.328 24.019 24.019 0 005.599 8.723 24.13 24.13 0 007.69 5.188 24.074 24.074 0 009.414 1.9c3.267 0 6.433-.635 9.413-1.9a24.13 24.13 0 007.69-5.189 24.243 24.243 0 005.189-7.69A24.161 24.161 0 0052.31 30c0-3.268-.636-6.44-1.9-9.42a24.019 24.019 0 00-5.19-7.69 24.13 24.13 0 00-7.69-5.189 23.871 23.871 0 00-9.406-1.9c-3.268 0-6.433.636-9.413 1.9a24.13 24.13 0 00-7.69 5.189 24.796 24.796 0 00-1.956 2.208l-4.087-3.2C10.359 5.021 18.732.598 28.139.605c16.379.007 29.53 13.31 29.367 29.696-.164 16.098-13.255 29.094-29.381 29.094-12.68 0-23.481-8.04-27.597-19.298a.558.558 0 01.335-.711z"/>
</svg>
