<svg xmlns="http://www.w3.org/2000/svg" width="50" height="50" fill="none" viewBox="0 0 50 50">
  <path fill="#EE3636" d="M23.967 43.776C17.364 50.38 8.4 51.516 3.574 46.69S.078 32.709 6.489 26.297c4.66-4.66 9.32-4.66 12.816-8.157 3.496-3.494 2.331-6.99 7.576-12.234 6.408-6.407 14.563-7.574 19.808-2.331 5.242 5.244 3.933 13.547-2.33 19.81-5.244 5.243-8.74 4.077-12.235 7.572-3.498 3.497-3.498 8.157-8.157 12.82z" />
  <path fill="#fff" d="M11.404 29.718a1.39 1.39 0 01-.768-2.547 19.136 19.136 0 013.118-1.657c5.47-2.106 9.586-5.845 10.785-9.774a1.39 1.39 0 112.658.81c-1.443 4.73-6.194 9.151-12.404 11.54-.924.39-1.82.866-2.624 1.398-.226.15-.493.23-.765.23zM4.4 42.131h-.031a1.392 1.392 0 01-1.36-1.419c.066-3.005.535-6.827 3.613-9.725a1.39 1.39 0 011.905 2.024c-2.314 2.176-2.683 5.145-2.739 7.761A1.39 1.39 0 014.4 42.131zm5.729-.985a1.388 1.388 0 01-1.347-1.733c.78-3.043 2.474-7.33 8.16-9.409a1.39 1.39 0 01.952 2.61c-4.404 1.61-5.746 4.847-6.424 7.489a1.382 1.382 0 01-1.341 1.043zM34.665 25.81a1.39 1.39 0 01-.462-2.698c5.943-2.098 9.512-6.18 10.91-12.476a1.395 1.395 0 011.658-1.054 1.39 1.39 0 011.055 1.657c-1.602 7.209-5.875 12.085-12.7 14.493-.148.051-.304.078-.46.078z" />
  <path fill="#fff" d="M33.97 20.66a1.388 1.388 0 01-.51-2.68c2.391-.948 4.691-3.144 5.722-5.466a1.391 1.391 0 012.539 1.128c-1.328 2.987-4.17 5.704-7.24 6.92-.161.065-.335.098-.51.098zM21.876 30.672a1.389 1.389 0 01-.525-2.675c1.326-.541 2.749-1.868 3.147-2.544a1.388 1.388 0 112.393 1.41c-.712 1.212-2.589 2.93-4.49 3.706a1.374 1.374 0 01-.525.103zm5.556-17.593a1.39 1.39 0 01-1.313-1.844c.556-1.6 1.714-3.132 2.95-3.906a1.39 1.39 0 111.474 2.356c-.585.365-1.413 1.351-1.799 2.46a1.39 1.39 0 01-1.312.934zM8.968 47.104a1.385 1.385 0 01-1.372-1.19c-.09-.627 0-1.74.136-2.349a1.403 1.403 0 011.657-1.054 1.389 1.389 0 011.054 1.658c-.089.398-.125 1.145-.096 1.355a1.388 1.388 0 01-1.379 1.58z" />
</svg>