<svg xmlns="http://www.w3.org/2000/svg" width="67" height="66" fill="none" viewBox="0 0 67 66">
  <path fill="#DD8C40" d="M23.967 59.776C17.364 66.38 8.4 67.516 3.574 62.69S.078 48.709 6.489 42.297c4.66-4.66 9.32-4.66 12.816-8.157 3.496-3.494 2.331-6.99 7.576-12.234 6.408-6.407 14.563-7.574 19.808-2.331 5.242 5.244 3.933 13.547-2.33 19.81-5.244 5.243-8.74 4.078-12.235 7.572-3.498 3.497-3.498 8.157-8.157 12.82z"/>
  <path fill="#fff" fill-opacity=".75" d="M11.404 45.718a1.39 1.39 0 01-.768-2.547 19.136 19.136 0 013.118-1.657c5.47-2.106 9.586-5.845 10.785-9.774a1.39 1.39 0 112.658.81c-1.443 4.73-6.194 9.151-12.404 11.54-.924.39-1.82.866-2.624 1.397-.226.151-.493.232-.765.231zM4.4 58.131h-.031a1.392 1.392 0 01-1.36-1.419c.066-3.005.535-6.827 3.613-9.725a1.39 1.39 0 011.905 2.024c-2.314 2.176-2.683 5.145-2.739 7.761A1.39 1.39 0 014.4 58.131zm5.729-.985a1.388 1.388 0 01-1.347-1.733c.78-3.043 2.474-7.33 8.16-9.409a1.39 1.39 0 01.952 2.61c-4.404 1.61-5.746 4.847-6.424 7.489a1.382 1.382 0 01-1.341 1.043zM34.665 41.81a1.39 1.39 0 01-.462-2.699c5.943-2.097 9.512-6.179 10.91-12.475a1.395 1.395 0 011.658-1.054 1.39 1.39 0 011.055 1.657c-1.602 7.209-5.875 12.085-12.7 14.493-.148.051-.304.078-.46.078z"/>
  <path fill="#fff" d="M33.97 36.66a1.388 1.388 0 01-.51-2.68c2.391-.948 4.691-3.144 5.722-5.466a1.391 1.391 0 012.539 1.128c-1.328 2.987-4.17 5.704-7.24 6.92-.161.065-.335.098-.51.098zM21.876 46.672a1.389 1.389 0 01-.525-2.675c1.326-.541 2.749-1.868 3.147-2.544a1.388 1.388 0 112.393 1.41c-.712 1.212-2.589 2.93-4.49 3.706a1.374 1.374 0 01-.525.103zm5.556-17.593a1.39 1.39 0 01-1.313-1.844c.556-1.6 1.714-3.132 2.95-3.906a1.389 1.389 0 111.474 2.356c-.585.365-1.413 1.351-1.799 2.46a1.39 1.39 0 01-1.312.934zM8.968 63.104a1.385 1.385 0 01-1.372-1.19c-.09-.627 0-1.74.136-2.349a1.403 1.403 0 011.657-1.054 1.389 1.389 0 011.054 1.658c-.089.398-.125 1.145-.096 1.355a1.388 1.388 0 01-1.379 1.58z"/>
  <g>
    <path fill="#D21414" fill-rule="evenodd" d="M61.198 13.585c-.898-.389-2.2-.188-2.807-1-2.924-3.913-10.136-7.22-14.598-4.92-2.413 1.244-3.21 4.026-5.52 5.297-3.147 1.734-6.818 1.612-8.532 5.521-.833 1.899 2.159 2.529 3.555 3.183 4.646 2.183 9.288 4.374 13.928 6.571 5.22 2.476 3.763-.979 4.544-4.236.378-1.564.34-3.903.428-5.464.102-1.905-.497-6.569 2.364-5.805 3.962 1.054-.803 2.63 3.998 6.432 1.402 1.108 3.525.132 4.258-1.412a3.02 3.02 0 00.224-1.864 3.27 3.27 0 00-.919-1.696 2.956 2.956 0 00-.923-.607z" clip-rule="evenodd"/>
    <path fill="#fff" d="M56.058 15.444a2.53 2.53 0 013.29-2.543l1.636.518a3 3 0 011.963 1.982l.034.111c.072.235.115.477.128.722l.033.63a3 3 0 01-2.84 3.153l-.647.033a3 3 0 01-3.028-2.129l-.427-1.413c-.07-.23-.11-.47-.123-.71l-.019-.354z"/>
    <rect width="24.531" height="4.932" x="30.242" y="15.636" fill="#fff" rx="2" transform="rotate(25.504 30.242 15.636)"/>
  </g>
</svg>
