<svg xmlns="http://www.w3.org/2000/svg" width="236" height="40" fill="none" viewBox="0 0 236 40">
  <rect width="38" height="38" x="1" y="1" stroke="#343B41" stroke-width="2" rx="4"/>
  <path fill="#343B41" d="M23.936 9.81c.3-.54.73-.81 1.29-.81h5.49c.22 0 .41.08.57.24.16.16.24.35.24.57v19.38c0 .22-.08.41-.24.57-.16.16-.35.24-.57.24h-5.43c-.22 0-.41-.08-.57-.24a.779.779 0 0 1-.24-.57v-9.3l-2.19 4.32c-.06.14-.2.3-.42.48-.22.18-.5.27-.84.27h-2.04c-.34 0-.62-.09-.84-.27-.22-.18-.36-.34-.42-.48l-2.19-4.32v9.3c0 .22-.08.41-.24.57-.16.16-.35.24-.57.24h-5.43c-.22 0-.41-.08-.57-.24a.779.779 0 0 1-.24-.57V9.81c0-.22.08-.41.24-.57.16-.16.35-.24.57-.24h5.49c.56 0 .99.27 1.29.81l3.93 7.2 3.93-7.2Zm46.535 0c.3-.54.73-.81 1.29-.81h5.49c.22 0 .41.08.57.24.16.16.24.35.24.57v19.38c0 .22-.08.41-.24.57-.16.16-.35.24-.57.24h-5.43c-.22 0-.41-.08-.57-.24a.779.779 0 0 1-.24-.57v-9.3l-2.19 4.32c-.06.14-.2.3-.42.48-.22.18-.5.27-.84.27h-2.04c-.34 0-.62-.09-.84-.27-.22-.18-.36-.34-.42-.48l-2.19-4.32v9.3c0 .22-.08.41-.24.57-.16.16-.35.24-.57.24h-5.43c-.22 0-.41-.08-.57-.24a.779.779 0 0 1-.24-.57V9.81c0-.22.08-.41.24-.57.16-.16.35-.24.57-.24h5.49c.56 0 .99.27 1.29.81l3.93 7.2 3.93-7.2Zm25.638 14.04h5.43c.22 0 .41.08.57.24.16.16.24.35.24.57v4.53c0 .22-.08.41-.24.57-.16.16-.35.24-.57.24h-19.02c-.22 0-.41-.08-.57-.24a.779.779 0 0 1-.24-.57v-4.53c0-.22.08-.41.24-.57.16-.16.35-.24.57-.24h5.49v-8.7h-5.49c-.22 0-.41-.08-.57-.24a.779.779 0 0 1-.24-.57V9.81c0-.22.08-.41.24-.57.16-.16.35-.24.57-.24h19.02c.22 0 .41.08.57.24.16.16.24.35.24.57v4.53c0 .22-.08.41-.24.57-.16.16-.35.24-.57.24h-5.43v8.7ZM126.908 9c.22 0 .41.08.57.24.16.16.24.35.24.57v19.38c0 .22-.08.41-.24.57-.16.16-.35.24-.57.24h-4.83c-.48 0-.88-.21-1.2-.63l-6.54-8.34v8.16c0 .22-.08.41-.24.57-.16.16-.35.24-.57.24h-5.58c-.22 0-.41-.08-.57-.24a.779.779 0 0 1-.24-.57V9.81c0-.22.08-.41.24-.57.16-.16.35-.24.57-.24h4.86c.48 0 .87.2 1.17.6l6.54 9.03V9.81c0-.22.08-.41.24-.57.16-.16.35-.24.57-.24h5.58Zm16.008 0c3.38 0 6.08.73 8.1 2.19 2.04 1.46 3.06 3.72 3.06 6.78v3.06c0 3.12-1.01 5.4-3.03 6.84-2 1.42-4.71 2.13-8.13 2.13h-9.57c-.22 0-.41-.08-.57-.24a.779.779 0 0 1-.24-.57V9.81c0-.22.08-.41.24-.57.16-.16.35-.24.57-.24h9.57Zm.15 15.15c.94 0 1.68-.22 2.22-.66.56-.46.84-1.1.84-1.92v-4.14c0-.82-.28-1.45-.84-1.89-.54-.46-1.28-.69-2.22-.69h-2.73v9.3h2.73Zm21.108 4.83c-.26.68-.71 1.02-1.35 1.02h-5.67c-.18 0-.34-.06-.48-.18a.717.717 0 0 1-.18-.48l.03-.18 6.54-19.17c.08-.26.23-.49.45-.69.22-.2.52-.3.9-.3h8.34c.38 0 .68.1.9.3.22.2.37.43.45.69l6.54 19.17.03.18c0 .18-.07.34-.21.48a.61.61 0 0 1-.45.18h-5.67c-.64 0-1.09-.34-1.35-1.02l-.75-2.1h-7.32l-.75 2.1Zm4.41-14.19-2.13 6.24h4.26l-2.13-6.24Zm35.178 9.06c.22 0 .41.08.57.24.16.16.24.35.24.57v4.53c0 .22-.08.41-.24.57-.16.16-.35.24-.57.24h-17.52c-.22 0-.41-.08-.57-.24a.779.779 0 0 1-.24-.57V9.81c0-.22.08-.41.24-.57.16-.16.35-.24.57-.24h6.48c.22 0 .41.08.57.24.16.16.24.35.24.57v14.04h10.23Zm25.489 0c.22 0 .41.08.57.24.16.16.24.35.24.57v4.53c0 .22-.08.41-.24.57-.16.16-.35.24-.57.24h-17.52c-.22 0-.41-.08-.57-.24a.779.779 0 0 1-.24-.57V9.81c0-.22.08-.41.24-.57.16-.16.35-.24.57-.24h6.48c.22 0 .41.08.57.24.16.16.24.35.24.57v14.04h10.23Z"/>
</svg>
