<svg xmlns="http://www.w3.org/2000/svg" width="64" height="64" fill="none" viewBox="0 0 64 64">
  <path fill="#EE3636" d="M47 41.453a7.47 7.47 0 00-4.712 1.667l-12.95-9.358a10.022 10.022 0 000-3.596l12.95-9.358A7.471 7.471 0 0047 22.474c4.138 0 7.5-3.358 7.5-7.491 0-4.133-3.362-7.492-7.5-7.492s-7.5 3.36-7.5 7.492c0 .724.1 1.417.294 2.079l-12.3 8.896a9.998 9.998 0 00-7.994-3.983c-5.525 0-10 4.47-10 9.989 0 5.518 4.475 9.988 10 9.988a9.998 9.998 0 007.994-3.983l12.3 8.896a7.393 7.393 0 00-.294 2.08c0 4.132 3.362 7.49 7.5 7.49s7.5-3.358 7.5-7.49c0-4.133-3.362-7.492-7.5-7.492zm0-29.716a3.25 3.25 0 013.25 3.246 3.25 3.25 0 01-6.5 0A3.25 3.25 0 0147 11.737zm-27.5 25.72c-3.031 0-5.5-2.466-5.5-5.493 0-3.028 2.469-5.494 5.5-5.494s5.5 2.466 5.5 5.494c0 3.027-2.469 5.493-5.5 5.493zM47 52.191a3.25 3.25 0 01-3.25-3.247 3.25 3.25 0 016.5 0A3.25 3.25 0 0147 52.191z"/>
</svg>
