<svg width="40" height="40" viewBox="0 0 40 40" fill="none"
    xmlns="http://www.w3.org/2000/svg" xmlns:xlink="http://www.w3.org/1999/xlink"
    aria-hidden="true" role="img" class="iconify iconify--logos"
    preserveAspectRatio="xMidYMid meet"
>
    <style>
        path {
            fill: #343B41;
        }

        #outline {
            fill: none;
            stroke: #343B41;
        }

        @media (prefers-color-scheme: dark) {
            path {
                fill: white;
            }

            #outline {
                stroke: white;
            }
        }
    </style>

    <path
        id="outline"
        d="M35 1H5C2.79086 1 1 2.79086 1 5V35C1 37.2091 2.79086 39 5 39H35C37.2091 39 39 37.2091 39 35V5C39 2.79086 37.2091 1 35 1Z"
        stroke="#343B41" stroke-width="2" />
    <path
        d="M23.936 9.81C24.236 9.27 24.666 9 25.226 9H30.716C30.936 9 31.126 9.08 31.286 9.24C31.446 9.4 31.526 9.59 31.526 9.81V29.19C31.526 29.41 31.446 29.6 31.286 29.76C31.126 29.92 30.936 30 30.716 30H25.286C25.066 30 24.876 29.92 24.716 29.76C24.6392 29.6864 24.5783 29.5979 24.537 29.4998C24.4957 29.4018 24.475 29.2964 24.476 29.19V19.89L22.286 24.21C22.226 24.35 22.086 24.51 21.866 24.69C21.646 24.87 21.366 24.96 21.026 24.96H18.986C18.646 24.96 18.366 24.87 18.146 24.69C17.926 24.51 17.786 24.35 17.726 24.21L15.536 19.89V29.19C15.536 29.41 15.456 29.6 15.296 29.76C15.136 29.92 14.946 30 14.726 30H9.296C9.076 30 8.886 29.92 8.726 29.76C8.6492 29.6864 8.58828 29.5979 8.54701 29.4998C8.50573 29.4018 8.48497 29.2964 8.486 29.19V9.81C8.486 9.59 8.566 9.4 8.726 9.24C8.886 9.08 9.076 9 9.296 9H14.786C15.346 9 15.776 9.27 16.076 9.81L20.006 17.01L23.936 9.81Z"
        fill="#343B41" />
</svg>